<svg width="393" height="852" viewBox="0 0 393 852" fill="none" xmlns="http://www.w3.org/2000/svg">
<g clip-path="url(#clip0_246_232)">
<path d="M393 0H0V852H393V0Z" fill="#F1F3FC"/>
<path d="M-115.37 118.58C-115.25 75.6499 -114.19 38.4999 -95.4799 17.5199C-76.7699 -3.46006 -40.4799 -8.29006 -9.47989 -6.24006C21.5201 -4.19006 47.1901 4.76994 75.0001 19.3699C102.81 33.9699 132.76 54.4399 137.22 79.3699C141.68 104.3 120.61 133.69 98.9101 164.26C77.2101 194.83 55.0601 226.61 19.5001 242.59C-16.0599 258.57 -64.9099 258.86 -89.7799 234.53C-114.65 210.2 -115.5 161.53 -115.37 118.58Z" fill="url(#paint0_linear_246_232)"/>
<path d="M417.84 681.64C372.84 669.15 334.12 657.34 317.49 631.64C300.86 605.94 306.23 566.48 317.3 534.55C328.37 502.62 345.18 478.22 368.5 453.25C391.82 428.28 421.94 402.72 449.37 405.25C476.8 407.78 501.6 438.33 527.44 469.91C553.28 501.49 580.29 533.91 586.83 575.8C593.37 617.69 579.61 669.08 546.9 688.18C514.19 707.28 462.9 694.18 417.84 681.66" fill="url(#paint1_linear_246_232)"/>
<path opacity="0.3" d="M393 719.73C393 719.73 361.92 648.68 210.93 726.39C204.27 728.61 86.59 753 0 666.44V852H393V719.73Z" fill="#359CB6"/>
<path opacity="0.3" d="M0 601.35C0 601.35 72.68 566.12 178.39 665.22C191.61 678.44 275.3 773.14 392 782C394.2 795.21 392 852 392 852H0V601.35Z" fill="#359CB6"/>
<path d="M174 342.9V341.35H174.06C174.41 341.68 174.66 342.1 174.31 342.59C174.241 342.723 174.133 342.831 174 342.9Z" fill="#359CB6"/>
<path d="M179.68 360.85V367.43L179.47 367.24C179.374 367.154 179.27 367.077 179.16 367.01C179.058 366.95 178.951 366.9 178.84 366.86L178.7 366.81H178.57C178.42 366.81 178.81 366.81 178.64 366.81C179.45 365.56 179.92 363.51 177.16 362.41C175.28 361.66 174.89 361.84 174.1 363.17V351.26C175.049 352.046 175.902 352.943 176.64 353.93L176.77 354.12C178.201 356.142 179.22 358.425 179.77 360.84L179.68 360.85Z" fill="#359CB6"/>
<path d="M183.82 364.81H183.83L183.82 364.82V364.81Z" fill="#359CB6"/>
<path d="M191.29 321.44V374.49H186.21L184.88 366.24C185.185 365.354 185.428 364.449 185.61 363.53C185.713 363.175 185.797 362.814 185.86 362.45C185.92 362.18 185.96 361.9 186 361.63C186 361.37 186.06 361.1 186.07 360.83C186.81 350.67 184.3 341.5 177.71 334.83C176.749 333.744 175.699 332.741 174.57 331.83L174 321.44H179.11L185.61 347.96V321.44H191.29Z" fill="#359CB6"/>
<path d="M212.86 321.44V371.61L209.98 374.49H201.25H197.71H195.55V321.44H201.25V368.79H207.16V321.44H212.86Z" fill="#359CB6"/>
<path d="M234.38 327.14H228.62V374.49H222.93V327.14H217.12V321.44H222.93H228.62H234.38V327.14Z" fill="#359CB6"/>
<path d="M256 324.27L253.16 321.44H238.69V374.49H244.39V355.69H250.3V374.49H256V354.89L254 352.89L256 350.89V324.27ZM250.3 350H244.39V327.14H250.3V350Z" fill="#359CB6"/>
<path d="M265.96 321.44H260.26V374.49H265.96V321.44Z" fill="#359CB6"/>
<path d="M287.48 327.14H281.73V374.49H276.03V327.14H270.22V321.44H276.03H281.73H287.48V327.14Z" fill="#359CB6"/>
<path d="M297.49 321.44H291.79V374.49H297.49V321.44Z" fill="#359CB6"/>
<path d="M316.22 321.44H301.75V371.61L304.62 374.49H319.06V324.27L316.22 321.44ZM313.36 368.79H307.45V327.14H313.36V368.79Z" fill="#359CB6"/>
<path d="M340.63 374.49H335.55L329.02 347.97V374.49H323.32V321.44H328.43L334.93 347.97V321.44H340.63V374.49Z" fill="#359CB6"/>
<path d="M182.33 382.58V379.58H175.66C175.843 379.977 175.971 380.398 176.04 380.83C176.286 382.308 176.062 383.826 175.4 385.17C174.75 386.5 174.07 387.81 173.34 389.1V407.22H176.34V397.42H182.34V394.42H176.34V382.52L182.33 382.58Z" fill="#CAC531"/>
<path d="M198.48 379.61L199.95 381.08V407.25H196.95V395.31L193.87 396.4V407.25H190.87V381.08L192.37 379.61H198.48ZM193.9 393.23L196.98 392.15V382.58H193.9V393.23Z" fill="#CAC531"/>
<path d="M220.93 379.61V407.25H217.93V389.54L214.7 398.42L211.47 389.54V407.25H208.47V379.61H211.02L214.67 389.71L218.32 379.61H220.93Z" fill="#CAC531"/>
<path d="M232.47 379.61V407.25H229.47V379.61H232.47Z" fill="#CAC531"/>
<path d="M250.07 404.28V407.28H241.07V379.61H244.07V404.28H250.07Z" fill="#CAC531"/>
<path d="M264.78 379.61V396L263.28 397.47H261.75V407.27H258.75V397.47H257.23L255.73 396V379.61H258.73V394.48H261.73V379.61H264.78Z" fill="#CAC531"/>
<path d="M293.49 379.61L294.97 381.08V405.75L293.49 407.25H286V379.61H293.54H293.49ZM292 404.28V382.58H288.92V404.28H292Z" fill="#56AB2F"/>
<path d="M306.51 379.61V407.25H303.51V379.61H306.51Z" fill="#56AB2F"/>
<path d="M318.05 382.58V391.51H324.05V394.51H318.05V404.31H324.05V407.31H315.05V379.61H324.05V382.61L318.05 382.58Z" fill="#56AB2F"/>
<path d="M341.67 382.58H338.67V407.25H335.67V382.58H332.67V379.58H341.67V382.58Z" fill="#56AB2F"/>
<path d="M136.13 347.79C133.863 348.192 131.7 349.045 129.77 350.3L129.37 350.52H129.3C129.046 350.669 128.754 350.742 128.46 350.73C128.01 350.66 128.19 350.05 128.19 350.05L128.63 347.8C129.63 338.1 132.05 340.02 132.69 340.73L132.74 340.8C132.768 340.826 132.791 340.857 132.81 340.89C133.93 342.43 135.04 343.97 136.16 345.5C136.71 346.38 137.47 347.62 136.13 347.79Z" fill="#80C519"/>
<path d="M173.16 342.64C172.79 343.15 172.34 342.9 171.94 342.64C166.575 339.513 160.332 338.234 154.17 339C153.864 339.039 153.554 339.014 153.258 338.926C152.963 338.837 152.69 338.688 152.456 338.487C152.222 338.286 152.033 338.038 151.901 337.76C151.769 337.481 151.697 337.178 151.69 336.87C151.647 336.537 151.672 336.198 151.763 335.874C151.855 335.551 152.011 335.249 152.222 334.987C152.433 334.726 152.695 334.51 152.992 334.352C153.289 334.194 153.615 334.098 153.95 334.07C157.448 333.939 160.935 334.521 164.202 335.779C167.468 337.037 170.444 338.946 172.95 341.39C173.26 341.73 173.51 342.16 173.16 342.64Z" fill="#F8EEEC"/>
<path d="M176 335.91C173.436 332.95 170.221 330.625 166.606 329.117C162.992 327.609 159.078 326.96 155.17 327.22C154.64 327.22 154.17 327.3 153.63 327.35H153.52L152.75 327.43L151.93 327.59H151.84C149.92 327.89 148.48 328.25 148.16 328.33H148.09C144.744 329.001 141.527 330.203 138.56 331.89C137.196 332.654 135.944 333.603 134.84 334.71C134.282 335.109 133.851 335.662 133.6 336.3C133.55 336.429 133.513 336.563 133.49 336.7C133.332 337.704 133.534 338.731 134.06 339.6C134.19 339.84 134.33 340.05 134.45 340.24L134.94 340.88C135.59 341.71 136.23 342.54 136.94 343.35C140.14 347.14 140.94 347.35 145.53 345.35C157.28 337.68 173.63 342.53 179.64 355.44C180.708 357.823 181.419 360.35 181.75 362.94C181.85 363.67 181.92 364.64 182.75 364.7C183.87 364.78 183.88 363.7 184.06 362.89C184.173 362.343 184.246 361.788 184.28 361.23C185.12 351.2 182.61 342.59 176 335.91ZM173.14 342.64C172.77 343.15 172.32 342.9 171.92 342.64C166.561 339.517 160.326 338.238 154.17 339C153.864 339.039 153.554 339.014 153.258 338.926C152.963 338.837 152.69 338.688 152.456 338.487C152.222 338.286 152.033 338.038 151.901 337.76C151.769 337.481 151.697 337.178 151.69 336.87C151.647 336.536 151.672 336.198 151.763 335.874C151.855 335.551 152.011 335.249 152.222 334.987C152.433 334.726 152.695 334.509 152.992 334.352C153.289 334.194 153.615 334.098 153.95 334.07C157.448 333.939 160.936 334.521 164.202 335.779C167.468 337.037 170.444 338.946 172.95 341.39C173.26 341.73 173.51 342.16 173.16 342.64H173.14Z" fill="#EC1D1E"/>
<path d="M169.11 357.6C168.455 357.795 167.786 357.942 167.11 358.04C164.646 358.476 162.113 358.305 159.73 357.54C159.41 357.44 159.11 357.33 158.8 357.2C158.57 357.13 156.48 356.44 156.8 355.2C156.796 355.177 156.796 355.153 156.8 355.13C156.8 355.13 156.8 355.05 156.89 354.94L156.99 354.82C157.16 354.68 157.49 354.61 158.2 354.82L158.43 354.88C160.435 355.412 162.528 355.531 164.58 355.23C162.1 353.784 159.369 352.82 156.53 352.39L156.16 352.31C155.89 352.21 155.62 352 155.99 351.56C155.99 351.51 156.08 351.46 156.14 351.41C156.6 351.105 157.098 350.86 157.62 350.68L157.84 350.6L158.02 350.54C160.029 349.886 162.211 350.026 164.12 350.93C164.828 351.256 165.499 351.659 166.12 352.13C166.208 352.191 166.291 352.258 166.37 352.33L166.46 352.4L166.74 352.63C167.519 353.253 168.194 353.995 168.74 354.83C169.86 356.48 170.11 357.17 169.11 357.6Z" fill="#80C519"/>
<path d="M150.9 352.91C150.916 351.239 151.213 349.582 151.78 348.01C152.11 347.01 152.6 346.21 153.78 347.01C154.69 347.62 155.25 348.34 154.22 349.45C153.43 350.476 152.929 351.695 152.77 352.98C152.12 353.58 151.5 354.09 150.9 352.91Z" fill="#7F6D5D"/>
<path d="M156.6 365.79C157.1 368.64 155.53 371.79 153.5 372.18C151.22 372.58 150.63 371.04 150.3 369.24C149.79 366.45 151.23 363.34 153.3 363.06C155.37 362.78 156.22 364.2 156.6 365.79Z" fill="#F3F8E7"/>
<path d="M159.24 361.49C158.624 360.18 157.77 358.996 156.72 358L156 357.48L155.91 357.42C155.68 357.27 155.35 357.07 155.15 356.93C154.873 356.773 154.577 356.653 154.27 356.57C151.86 355.948 149.66 354.691 147.9 352.93C147.5 352.53 147.19 352.2 146.9 351.99C144.78 349.99 141.59 350.08 139.9 350.28L139.58 350.33H139.43L138.86 350.43C137.352 350.755 135.908 351.329 134.59 352.13L134.44 352.22C133.129 352.996 131.922 353.937 130.85 355.02L130.66 355.19L130.59 355.28C130.12 355.772 129.686 356.297 129.29 356.85C128.379 358.085 127.76 359.511 127.48 361.02C127.29 361.67 127.13 362.33 126.98 363.02C126.352 364.745 126.089 366.581 126.207 368.412C126.326 370.244 126.824 372.031 127.67 373.66C127.67 373.72 127.82 373.91 128.02 374.2C128.16 374.4 128.35 374.65 128.56 374.93C128.622 374.99 128.675 375.057 128.72 375.13C129.329 375.889 129.977 376.617 130.66 377.31C130.95 377.61 131.27 377.92 131.6 378.22L132.19 378.75L132.86 379.31C134.838 380.955 137.112 382.207 139.56 383L140.11 383.15C141.281 383.469 142.487 383.64 143.7 383.66C144.473 383.746 145.254 383.723 146.02 383.59C147.237 383.377 148.43 383.042 149.58 382.59C155.16 380.33 158.96 375.41 160.17 368.76C160.642 366.299 160.316 363.752 159.24 361.49ZM153.5 372.18C151.23 372.58 150.63 371.04 150.3 369.24C149.79 366.45 151.23 363.34 153.3 363.06C155.37 362.78 156.24 364.19 156.62 365.79C157.1 368.64 155.53 371.83 153.5 372.18Z" fill="#8CCC06"/>
<path d="M173.77 380.29C174.022 381.768 173.798 383.288 173.13 384.63C171.823 387.343 170.336 389.965 168.68 392.48C167.44 394.36 166.15 394.48 164.3 393.64C163.17 393.13 161.61 391.64 160.81 392.95C160.21 393.95 162.28 394.77 163.31 395.38C164.98 396.38 165.07 397.45 163.93 398.86C159.32 404.55 154.43 410.01 149.51 415.44C149 416 148.41 416.69 147.59 416.27C146.59 415.77 146.98 414.84 147.21 414.06C148.5 409.72 149.85 405.39 151.11 401.06C151.57 399.46 152.28 398.92 153.87 399.76C154.47 400.07 155.48 400.61 155.87 399.95C156.48 398.95 155.23 398.5 154.62 398.19C152.76 397.19 152.74 395.87 153.4 394.19C154.4 391.74 155.29 389.27 156.27 386.82C156.94 385.13 158.04 384.44 159.73 385.16C160.16 385.347 160.568 385.578 160.95 385.85L162.74 386.85L164.11 387.63C164.235 387.78 164.4 387.892 164.585 387.954C164.77 388.016 164.968 388.026 165.158 387.983C165.349 387.939 165.523 387.844 165.663 387.708C165.803 387.571 165.902 387.399 165.95 387.21L166.01 387.09C166.32 386.38 165.71 386.02 165.14 385.69L164.3 385.08C162.97 384.14 161.09 382.93 160.72 382.69C159.29 381.88 159.02 380.99 159.88 379.69C160.42 378.9 160.88 378.09 161.5 377.34C161.848 376.874 162.233 376.435 162.65 376.03C162.668 376.005 162.692 375.984 162.72 375.97C163.257 375.451 163.91 375.066 164.624 374.849C165.339 374.632 166.095 374.587 166.83 374.72C167.35 374.91 167.83 375.09 168.39 375.31L168.65 375.42C172 376.88 173.36 378 173.77 380.29Z" fill="#FB7E0A"/>
<path d="M178.62 371.56C177.33 372.25 175.77 372.71 174.95 373.94C174.721 374.291 174.559 374.681 174.47 375.09V375.21C174.464 375.26 174.464 375.31 174.47 375.36C174.47 375.71 174.47 376.36 173.57 376L173.39 375.92L172.52 375.55C171.014 374.853 169.557 374.055 168.16 373.16C167.9 372.9 167.72 372.63 167.97 372.35C170.14 369.99 168.06 366.56 169.67 364.56C169.766 364.385 169.903 364.237 170.07 364.129C170.237 364.021 170.428 363.956 170.627 363.94C170.825 363.924 171.024 363.958 171.206 364.038C171.389 364.119 171.548 364.243 171.67 364.4C171.895 364.65 172.044 364.958 172.1 365.29C172.152 365.649 172.286 365.991 172.49 366.29C172.522 366.332 172.563 366.368 172.609 366.394C172.656 366.419 172.707 366.435 172.76 366.44C172.94 366.44 173.16 366.32 173.44 365.95L173.51 365.87C174.44 364.64 174.58 362.38 176.75 363.7C179.42 365.31 175.84 366.76 176.32 368.7C176.66 369.2 177.14 368.59 177.58 368.43C177.767 368.333 177.973 368.279 178.183 368.273C178.393 368.267 178.602 368.308 178.794 368.393C178.986 368.479 179.157 368.607 179.293 368.767C179.429 368.927 179.527 369.116 179.58 369.32C180 370.36 179.64 371 178.62 371.56Z" fill="#7BC312"/>
<path d="M137.09 405C137.516 406.643 137.491 408.37 137.02 410C136.832 410.636 136.402 411.173 135.822 411.496C135.243 411.82 134.56 411.904 133.92 411.73C133.611 411.719 133.306 411.645 133.027 411.512C132.747 411.379 132.498 411.19 132.294 410.956C132.091 410.723 131.938 410.45 131.844 410.155C131.75 409.859 131.718 409.548 131.75 409.24C132.28 405.35 132.62 401.51 131.41 397.68C131.356 397.546 131.331 397.402 131.338 397.257C131.344 397.113 131.382 396.972 131.449 396.844C131.515 396.715 131.609 396.603 131.723 396.514C131.837 396.426 131.969 396.363 132.11 396.33C132.9 396.07 133.36 396.59 133.69 397.15C135.178 399.598 136.322 402.24 137.09 405Z" fill="#F4EFF5"/>
<path d="M135.89 391.14C135.83 391.05 135.09 389.95 134.02 388.48V388.39L132.92 386.9H132.87C131.02 384.46 128.73 381.71 127.15 380.72C126.623 380.143 125.92 379.757 125.15 379.62C124.815 380.467 124.274 381.216 123.575 381.799C122.876 382.383 122.043 382.782 121.15 382.96L120.75 383.03C120.495 383.057 120.249 383.137 120.027 383.265C119.805 383.393 119.613 383.567 119.463 383.774C119.313 383.982 119.208 384.219 119.156 384.47C119.104 384.721 119.105 384.98 119.16 385.23V385.37C119.511 387.004 119.279 388.71 118.505 390.191C117.73 391.672 116.462 392.836 114.92 393.48C115.086 394.714 115.545 395.89 116.26 396.91C118.243 399.88 119.127 403.448 118.76 407L118.82 408.14C118.82 408.23 118.82 408.32 118.82 408.41L119.15 410.32C119.15 410.32 120.35 422.79 132.5 419.86C139.02 418.61 143.02 412.97 141.95 406.05C141.17 400.54 138.33 395.92 135.89 391.14ZM137 410C136.811 410.636 136.382 411.173 135.802 411.497C135.223 411.82 134.54 411.904 133.9 411.73C133.59 411.719 133.286 411.645 133.007 411.512C132.727 411.379 132.478 411.19 132.274 410.956C132.071 410.723 131.917 410.45 131.824 410.155C131.73 409.86 131.698 409.548 131.73 409.24C132.26 405.35 132.6 401.51 131.39 397.68C131.336 397.546 131.311 397.402 131.318 397.258C131.324 397.113 131.362 396.972 131.429 396.844C131.495 396.715 131.589 396.603 131.703 396.514C131.817 396.426 131.949 396.363 132.09 396.33C132.88 396.06 133.34 396.59 133.67 397.15C135.168 399.597 136.322 402.239 137.1 405C137.516 406.646 137.482 408.373 137 410Z" fill="#602571"/>
<path d="M125.23 376.36C125.103 376.587 124.933 376.788 124.73 376.95C124.485 377.175 124.225 377.383 123.95 377.57L123.72 377.73L123.31 378.01L122.69 378.39L121.81 378.87L121.02 379.23L120.53 379.44C118.873 380.102 117.105 380.442 115.32 380.44H115.27C113.83 380.35 113.52 381.2 113.91 383.06C114.381 385.933 113.962 388.882 112.71 391.51C112.37 392.33 111.71 393.36 110.94 392.33C108.86 389.5 105.87 387.33 103.94 384.39C103.046 383.07 102.499 381.547 102.35 379.96C102.35 379.62 102.35 379.33 102.35 379.06C102.355 378.993 102.355 378.927 102.35 378.86C102.35 378.86 102.35 378.86 102.35 378.8C102.371 378.195 102.341 377.59 102.26 376.99C102.26 376.83 102.2 376.68 102.17 376.53C102.144 376.402 102.11 376.275 102.07 376.15C102.07 376.05 102.01 375.93 101.97 375.82V375.72L101.91 375.57L101.85 375.45C101.531 374.755 101.017 374.168 100.37 373.76C100.3 373.76 100.19 373.66 100.06 373.57C99.21 373.04 97.28 371.66 98 370.44C98.0568 370.343 98.1238 370.253 98.2 370.17C98.4163 369.847 98.6754 369.554 98.97 369.3C99.04 369.2 99.81 368.3 102.54 370.25C103.124 370.637 103.787 370.889 104.48 370.99H104.82C105.465 371.019 106.11 370.924 106.72 370.71L106.98 370.64L107.63 370.42L107.83 370.36L109.3 369.92L110.13 369.76H110.34H110.43C110.83 369.697 111.235 369.66 111.64 369.65H111.79C112.709 369.619 113.624 369.775 114.48 370.11C114.691 370.201 114.895 370.308 115.09 370.43L122.31 374.2L122.65 374.38L123.12 374.63L123.33 374.73L124.11 375.14C124.465 375.224 124.79 375.404 125.05 375.66C125.165 375.731 125.248 375.843 125.282 375.974C125.315 376.104 125.297 376.243 125.23 376.36Z" fill="#79C30A"/>
<path d="M122.56 355.11C120.45 353.11 118.29 353.55 116.02 354.38C114.18 355.06 113.02 353.78 112.1 352.46C111.18 351.14 110.64 349.67 111.64 348.29C112.64 346.91 114.23 347.05 115.73 347.41C119.26 348.27 122.32 351.59 122.56 355.11Z" fill="#F7F6EF"/>
<path d="M109.62 363.48L109.13 363.83C108.94 363.98 107.06 365.46 105.79 366.53C105.699 366.609 105.615 366.696 105.54 366.79C105.34 367.085 105.065 367.321 104.743 367.474C104.422 367.627 104.065 367.691 103.71 367.66C102.3 367.41 101.29 365.12 100.91 364.38C98.6999 360.9 101.47 359.88 101.47 359.88C101.47 359.88 104.06 358.39 105.7 357.58C105.726 357.565 105.756 357.556 105.786 357.554C105.816 357.551 105.847 357.555 105.875 357.566C105.904 357.576 105.93 357.593 105.951 357.614C105.973 357.636 105.989 357.662 106 357.69C107.072 359.64 108.306 361.497 109.69 363.24C109.704 363.26 109.713 363.282 109.717 363.306C109.721 363.33 109.719 363.354 109.713 363.377C109.706 363.4 109.694 363.421 109.678 363.439C109.662 363.457 109.642 363.471 109.62 363.48Z" fill="#B56223"/>
<path d="M124.14 351.67C121.71 347.76 118.4 345.14 113.65 344.84C110.36 344.64 107.32 345.77 105.84 348.67C104.52 351.24 106.01 353.94 107.3 356.38L109.23 359.61C110.27 361.183 111.313 362.747 112.36 364.3V364.38C112.48 364.55 112.71 364.87 113.01 365.26C113.378 365.734 113.782 366.179 114.22 366.59C114.482 366.85 114.786 367.063 115.12 367.22C117.12 368.4 119.28 368.3 121.66 366.6V366.65C126.43 362.33 126.52 357.2 124.14 351.67ZM122.56 355.11C120.45 353.11 118.29 353.55 116.02 354.38C114.17 355.06 113.02 353.78 112.1 352.45C111.18 351.12 110.64 349.67 111.65 348.29C112.66 346.91 114.24 347.05 115.73 347.42C117.51 347.866 119.114 348.838 120.332 350.21C121.551 351.582 122.327 353.29 122.56 355.11Z" fill="#B56223"/>
<path d="M98.74 394.83C97.84 395.83 97.04 394.67 96.41 394.15C90 388.89 86.11 382 84 374C83.19 368.91 82.74 363.74 84.07 358.57C84.28 357.76 84.25 356.65 85.37 356.82C86.49 356.99 86.08 358.18 86.01 358.91C84.78 372.02 88.76 383.3 97.84 392.8C98.41 393.34 99.49 394 98.74 394.83Z" fill="#FBF5E3"/>
<path d="M112.46 335.68C111.46 334.85 110.75 335.68 110 336.2C106.471 338.889 102.056 340.147 97.6399 339.72C87.4999 338.56 81.2499 344.94 78.2299 352.05C73.8299 362.43 75.4399 372.55 80.4999 382.18C86.1499 392.93 94.4999 400.73 104.93 406.28C104.93 406.28 111.44 410.88 114.59 408.83C115.01 408.41 115.92 408.01 116.16 406.88C116.36 406 116.16 404.67 114.98 402.52C113.58 399.36 111.22 396.71 108.98 394.05C106.74 391.39 103.86 389.23 101.64 386.5C100.81 385.43 99.9399 384.15 99.0899 382.83C96.5499 378.83 94.2099 374.5 93.9299 373.97C93.9246 373.954 93.9246 373.936 93.9299 373.92C92.7005 371.281 92.0201 368.42 91.9299 365.51V364.9C91.9299 364.78 91.9299 364.65 91.9299 364.52C91.9252 364.447 91.9252 364.373 91.9299 364.3C91.9299 363.95 91.9299 363.59 92.0099 363.23V363C92.1584 360.753 92.5541 358.53 93.1899 356.37C93.2272 356.274 93.2706 356.18 93.3199 356.09C93.5399 355.61 93.7399 355.09 93.9599 354.64C94.0691 354.38 94.1926 354.126 94.3299 353.88C94.5676 353.47 94.8315 353.076 95.1199 352.7C95.4499 352.26 95.8199 351.81 96.1899 351.37C97.4499 349.89 98.7799 348.53 98.9699 348.37C102.7 345.02 107.37 343.19 112.4 341.95C113.32 341.72 114.72 341.95 114.72 340.49C114.733 339.569 114.536 338.658 114.144 337.824C113.753 336.991 113.177 336.258 112.46 335.68ZM97.8699 392.77C98.4099 393.34 99.4899 393.99 98.7399 394.83C97.8399 395.83 97.0399 394.67 96.4099 394.15C89.9999 388.89 86.1099 382 83.9999 374C83.1899 368.91 82.7399 363.74 84.0699 358.57C84.2799 357.76 84.2499 356.65 85.3699 356.82C86.4899 356.99 86.0799 358.18 86.0099 358.91C84.8099 372 88.7899 383.27 97.8699 392.77Z" fill="#FCB90A"/>
<path d="M167.26 425.67C165.43 426.06 163.26 427.1 151.26 426.3C150.193 426.155 149.106 426.247 148.078 426.568C147.05 426.889 146.105 427.433 145.31 428.16C144.29 429.003 143.397 429.99 142.66 431.09C139.06 436.29 122.16 456.61 92.4001 429.96C91.0001 428.67 74.1001 415 62.4401 395.23C54.8701 382.39 49.4901 366.96 51.9201 350.63C52.8301 344.76 55.6601 326.39 76.3701 320.38C81.512 318.922 86.8883 318.477 92.2001 319.07C98.9465 319.846 105.597 321.304 112.05 323.42C113.3 323.64 121.62 327.42 131.88 317.54C136.136 313.349 141.476 310.426 147.3 309.1C155.71 307.29 167.3 307.9 177.3 320.18C177.76 320.61 176.67 320.85 176.14 320.26C175.881 319.954 175.6 319.666 175.3 319.4C171.99 316.76 156.96 306.72 139.19 319.27C136.78 320.43 127.19 336.27 101.88 330.27C95.7901 328.82 89.5101 328.08 83.4201 329.51C73.2701 331.89 61.5101 339.51 61.5901 362.34C62.1822 368.231 63.5264 374.021 65.59 379.57C70.6627 393.32 79.1814 405.537 90.3301 415.05C92.0601 417.23 118.02 442.05 140.86 423.05C142.25 422.38 145.29 417.31 162.86 419.26C175.28 420.64 177.99 415.49 181.7 408.79C182.005 408.251 182.282 407.697 182.53 407.13C182.42 410.2 183.82 421.32 167.26 425.67Z" fill="#359CB6"/>
<path d="M120.27 321.08C120.27 321.08 111.88 298.26 96 285.84C94.32 284.78 92.43 282.69 90 286.26C89.62 287.19 87.41 291.79 91.44 293.36C93.28 294.81 97.9499 296.99 105.63 305.17C106.84 306.8 110.63 309.17 113.93 315.78C115.54 317.71 115.61 319.07 117.01 321.3C117.55 321.81 117.18 322.14 118.93 321.99C120.68 321.84 120.27 321.08 120.27 321.08Z" fill="#CAC531"/>
<path d="M120.19 313.35C118.48 309.74 113.99 297.71 124.04 287.02C127.013 283.897 130.723 281.573 134.83 280.26C141.47 278.08 153.04 276.13 162.32 284.71C162.361 284.751 162.388 284.804 162.394 284.862C162.4 284.92 162.386 284.978 162.354 285.026C162.322 285.075 162.274 285.111 162.219 285.128C162.163 285.145 162.104 285.142 162.05 285.12C159.16 283.77 152.6 282.12 144.93 292.99C144 294.06 142.86 298.85 135.74 304.4C134.21 305.65 126.8 309.75 123.74 310.53C123.609 310.561 123.473 310.559 123.344 310.525C123.214 310.492 123.094 310.426 122.996 310.336C122.897 310.245 122.822 310.131 122.777 310.005C122.733 309.878 122.72 309.743 122.74 309.61C123.15 306.78 124.74 298.8 129.36 293.79C133.096 289.201 137.904 285.601 143.36 283.31C143.415 283.284 143.459 283.238 143.482 283.181C143.506 283.125 143.508 283.062 143.489 283.004C143.469 282.946 143.429 282.897 143.375 282.867C143.322 282.837 143.26 282.827 143.2 282.84C136.632 284.533 130.837 288.413 126.77 293.84C125.92 294.94 120.06 303.06 120.63 313.26C120.622 313.308 120.6 313.353 120.566 313.388C120.532 313.423 120.489 313.447 120.441 313.457C120.393 313.467 120.344 313.462 120.299 313.443C120.254 313.424 120.216 313.391 120.19 313.35Z" fill="#359CB6"/>
<path d="M86.1201 325.41C81.6039 325.497 77.1634 326.586 73.1201 328.6C68.0322 331.296 63.8904 335.483 61.2501 340.6C59.3021 344.245 57.9996 348.2 57.4001 352.29C57.1217 354.971 57.0482 357.668 57.1801 360.36H57.0001C56.4686 358.494 56.0709 356.593 55.8101 354.67C55.5801 353.2 55.6801 351.74 55.5401 350.27C55.4899 348.805 55.6039 347.339 55.8801 345.9C56.2384 343.108 57.0207 340.386 58.2001 337.83C59.6214 334.679 61.6619 331.846 64.2001 329.5C66.39 327.473 68.9594 325.9 71.7601 324.87C75.5645 323.449 79.7234 323.281 83.6301 324.39C84.5055 324.56 85.3534 324.849 86.1501 325.25L86.1201 325.41Z" fill="#D9D9D9"/>
</g>
<defs>
<linearGradient id="paint0_linear_246_232" x1="85.8056" y1="116.603" x2="-351.292" y2="143.022" gradientUnits="userSpaceOnUse">
<stop stop-color="#359CB6"/>
<stop offset="0.52" stop-color="#CAC531"/>
<stop offset="1" stop-color="#56AB2F"/>
</linearGradient>
<linearGradient id="paint1_linear_246_232" x1="509.036" y1="647.205" x2="248.682" y2="356.297" gradientUnits="userSpaceOnUse">
<stop stop-color="#359CB6"/>
<stop offset="0.52" stop-color="#CAC531"/>
<stop offset="1" stop-color="#56AB2F"/>
</linearGradient>
<clipPath id="clip0_246_232">
<rect width="393" height="852" fill="white"/>
</clipPath>
</defs>
</svg>
