<svg width="62" height="68" viewBox="0 0 62 68" fill="none" xmlns="http://www.w3.org/2000/svg">
<path d="M30.3188 40.7979C30.3515 40.8243 30.3762 40.8594 30.3901 40.899C30.4065 40.8591 30.4332 40.8242 30.4675 40.7979C35.5593 36.8958 37.3438 34.3737 38.0874 33.9573C37.86 33.3961 37.6867 32.8145 37.5698 32.2203C37.3854 32.3988 37.2011 32.5713 37.0048 32.7378C36.4104 33.2719 35.7648 33.7461 35.0775 34.1536C34.4894 34.5003 33.865 34.7816 33.2156 34.9923C32.6261 35.1819 32.0178 35.3076 31.4014 35.367C30.6304 35.4435 29.8528 35.4215 29.0874 35.3016C28.4622 35.2058 27.8496 35.0402 27.2613 34.8079C26.6016 34.5437 25.9715 34.2108 25.3816 33.8145C24.6929 33.3458 24.0461 32.8184 23.4484 32.2382C23.3176 32.8726 23.1181 33.4909 22.8535 34.0822C23.7279 34.7841 25.6076 37.1635 30.3188 40.7979Z" fill="#E2AE83"/>
<path d="M19.7367 37.6454C19.6356 38.0618 19.0943 39.3823 21.4498 42.7134C23.926 46.3257 26.1787 50.0862 28.1953 53.9737C28.6533 50.9995 29.0281 48.6499 29.1827 47.829C29.073 47.7724 28.9836 47.683 28.927 47.5732C28.2667 46.0921 27.5291 45.2593 27.4874 44.0042C26.7796 44.7716 26.2383 45.5924 26.2978 46.3538C26.5 48.4834 20.0044 40.9051 19.7545 37.6216L19.7367 37.6454Z" fill="#76A2CF"/>
<path d="M16.4473 39.2097L16.1499 39.406L16.37 39.3346C16.3936 39.2917 16.4194 39.25 16.4473 39.2097Z" fill="#76A2CF"/>
<path d="M31.812 47.8289C31.9607 48.6379 32.3295 50.9161 32.7756 53.8249C34.6771 49.9957 36.8086 46.2851 39.1583 42.7133C40.7762 40.334 40.9428 38.9599 40.9428 38.2401C40.0386 41.7616 34.2984 48.3524 34.4888 46.3478C34.4538 45.5396 34.1036 44.7773 33.5133 44.2242C33.4002 45.3603 32.7102 46.1812 32.0856 47.5731C32.0243 47.6857 31.9284 47.7754 31.812 47.8289Z" fill="#76A2CF"/>
<path d="M27.2613 34.7841C27.8497 35.0164 28.4623 35.182 29.0875 35.2779C29.8529 35.3978 30.6305 35.4197 31.4014 35.3433C32.0179 35.2838 32.6261 35.1582 33.2157 34.9685C33.8651 34.7578 34.4894 34.4766 35.0775 34.1298C35.7649 33.7223 36.4104 33.2481 37.0048 32.7141C37.2011 32.5475 37.3855 32.375 37.5699 32.1966C40.1515 29.7102 40.1277 23.4168 40.7523 23.8688C42.174 24.8265 43.0841 21.9772 43.2625 20.2998C43.4112 18.9019 42.9056 18.1881 42.3227 18.3844C42.1978 18.9792 41.2639 18.7473 40.8891 19.354C40.5144 19.9607 40.675 17.1888 40.1396 16.3798C39.6043 15.5708 39.3128 14.2086 38.1886 14.0004C37.0643 13.7922 28.8436 14.7024 23.8529 12.0494C22.116 11.1274 21.8305 14.3336 20.8787 15.7493C19.927 17.165 20.611 19.7882 20.0221 19.2648C19.8313 19.0943 19.6169 18.9521 19.3857 18.8424L19.2964 18.7948C19.042 18.708 18.8159 18.5538 18.6421 18.3487C18.0473 18.1941 17.5952 18.9019 17.738 20.276C17.9164 21.9653 18.8265 24.8146 20.2541 23.845C20.849 23.4049 20.849 29.6983 23.4306 32.1728C24.0283 32.7531 24.6751 33.2805 25.3638 33.7491C25.9575 34.1609 26.5937 34.5079 27.2613 34.7841Z" fill="#EDB888"/>
<path d="M19.2905 18.8127L19.3797 18.8602C19.611 18.9699 19.8253 19.1121 20.0162 19.2826C20.611 19.806 19.9091 17.1828 20.8728 15.7671C21.8364 14.3514 22.1219 11.1452 23.847 12.0672C28.8377 14.7202 37.0583 13.8101 38.1826 14.0182C39.3068 14.2264 39.5983 15.6124 40.1337 16.3976C40.669 17.1828 40.5084 19.9666 40.8832 19.3718C41.2579 18.777 42.1918 19.009 42.3167 18.4022C42.4238 17.8074 45.053 11.859 41.4661 6.0593C37.8792 0.259609 30.985 -0.216263 27.0353 0.705739C21.9494 1.89542 21.3903 4.22124 21.1226 4.48297C20.8549 4.7447 19.7664 5.07781 18.9633 6.20801C16.4472 10.3719 18.4934 18.1762 18.6064 18.3844C18.7906 18.5875 19.0273 18.7357 19.2905 18.8127Z" fill="#3A3A3A"/>
<path d="M31.7584 47.8706C31.6242 47.9251 31.4809 47.9533 31.3361 47.9539L30.652 47.9956H30.4973H30.3427L29.6586 47.9539C29.5138 47.9533 29.3705 47.9251 29.2363 47.8706L29.1827 47.835C29.0281 48.6558 28.6533 50.9995 28.1953 53.9797C29.385 56.359 30.3189 58.6016 30.4973 60.0827C30.6758 58.5718 31.5918 56.2817 32.7756 53.8309C32.3294 50.9222 31.9606 48.6439 31.8119 47.835L31.7584 47.8706Z" fill="#3A63AD"/>
<path d="M28.939 47.5732C28.9957 47.683 29.0851 47.7724 29.1948 47.829L29.2483 47.8647C29.3825 47.9191 29.5259 47.9474 29.6707 47.948L30.3547 47.9896H30.5094H30.6641L31.3481 47.948C31.4929 47.9474 31.6363 47.9191 31.7705 47.8647L31.824 47.829C31.9337 47.7724 32.0231 47.683 32.0798 47.5732C32.7044 46.1813 33.3944 45.3604 33.5074 44.2243C32.3534 42.8918 30.5808 41.6724 30.4023 41.0657C30.2358 41.6605 28.6178 42.755 27.4995 43.9982C27.5293 45.2593 28.2669 46.0861 28.939 47.5732Z" fill="#3C66BC"/>
<path d="M21.6223 35.0518C21.2269 35.5489 20.7997 36.0198 20.3434 36.4615C20.0641 36.7942 19.861 37.1841 19.7485 37.6036C20.0162 40.8872 26.5119 48.4654 26.2918 46.3359C26.2204 45.5745 26.7617 44.7536 27.4815 43.9863C28.6295 42.743 30.2177 41.6069 30.3843 41.0537C30.5627 41.6485 32.3353 42.8799 33.4893 44.2123C34.0797 44.7654 34.4299 45.5277 34.4649 46.3359C34.2745 48.3405 40.0147 41.7497 40.9189 38.2282C40.9189 37.9308 40.8594 37.7345 40.8653 37.6334C40.8863 37.3317 40.8332 37.0295 40.7107 36.753C40.5261 36.5322 40.3274 36.3235 40.1158 36.1284L40.0564 36.063L39.753 35.7477C39.5412 35.5213 39.3426 35.283 39.1581 35.0339L39.1165 34.9804C38.8812 34.6712 38.6628 34.3495 38.4622 34.0168C38.373 33.8621 38.2481 33.8442 38.0696 33.9454C37.326 34.3618 35.5415 36.8839 30.4497 40.786C30.4154 40.8123 30.3887 40.8472 30.3724 40.8871C30.3585 40.8475 30.3337 40.8124 30.301 40.786C25.5899 37.1753 23.7102 34.7484 22.8655 34.0703C22.574 33.8383 22.4075 33.8145 22.2707 34.0168C22.0877 34.3222 21.8891 34.618 21.6758 34.9031C21.6758 34.9031 21.6223 35.0399 21.6223 35.0518Z" fill="#C3DFF7"/>
<path d="M21.8961 66.0311V65.811C21.4321 61.6471 21.1822 59.2975 21.1406 58.8276H21.0216C20.9421 58.8342 20.8631 58.8092 20.8019 58.7579C20.7406 58.7067 20.702 58.6334 20.6945 58.5539C20.4089 55.8653 19.0587 51.743 15.6145 52.0107C12.1704 52.2784 12.2834 57.8342 12.337 59.2321C12.3403 59.3153 12.3111 59.3966 12.2556 59.4587C12.2001 59.5209 12.1227 59.5591 12.0396 59.5652H11.9087C11.9087 59.8983 12.0098 61.195 12.1288 63.4257C15.2327 65.0551 18.5391 66.2652 21.9615 67.0245C21.959 66.6923 21.9371 66.3606 21.8961 66.0311Z" fill="#F5F5F5"/>
<path d="M11.5277 59.6069C11.4855 59.6093 11.4432 59.6033 11.4033 59.5894C11.3634 59.5754 11.3267 59.5537 11.2952 59.5255C11.2637 59.4974 11.2381 59.4632 11.2198 59.4251C11.2015 59.387 11.1909 59.3457 11.1886 59.3035C11.1063 57.8439 11.2305 56.3801 11.5574 54.9552C12.2475 52.2071 13.681 51.2434 14.9421 50.9698C14.9393 50.9441 14.9393 50.9182 14.9421 50.8925C14.8706 48.6418 15.0281 46.3896 15.412 44.1708C14.4841 44.0102 13.8833 43.8198 14.1569 43.6176C14.9956 43.0227 15.061 41.6903 16.2507 39.5608C16.2961 39.4827 16.3457 39.4073 16.3994 39.3347L16.1793 39.4061C13.7524 40.227 7.91702 42.0353 6.18604 43.1714C6.18604 43.1714 6.18604 43.1714 6.18604 43.2131C6.53699 43.0287 6.82251 42.9573 6.94148 43.1298C8.49996 45.1106 9.03532 49.7147 9.57662 54.634C9.74318 56.1508 9.90378 59.3392 9.98111 62.2242C10.576 62.5751 11.1708 62.9142 11.7656 63.2354C11.6526 61.1475 11.5812 59.9281 11.5574 59.6069H11.5277Z" fill="#F5F5F5"/>
<path d="M20.6884 44.7299C20.6884 44.7299 18.428 44.5812 16.5246 44.3433C16.2933 45.6129 16.1483 46.8967 16.0903 48.1859L20.6884 44.7299Z" fill="#F5F5F5"/>
<path d="M27.8503 60.0589C26.9461 59.0536 25.8694 57.5784 24.7809 56.7813C21.4914 54.4019 16.7446 49.0484 16.1081 48.3286C16.0724 49.1316 16.0546 49.9704 16.0724 50.8686C19.5284 50.9697 21.426 54.6161 21.8186 58.4528C21.8252 58.5339 21.7996 58.6144 21.7472 58.6768C21.6949 58.7391 21.6201 58.7783 21.539 58.7859H21.4974C21.539 59.2499 21.7888 61.5995 22.2528 65.7574V65.9894C22.3004 66.3623 22.3243 66.7378 22.3242 67.1137C23.793 67.4269 25.2786 67.6553 26.7736 67.7977H30.5925C30.6341 65.7991 30.6698 64.2287 30.7055 63.2175C29.6942 62.22 28.7408 61.1654 27.8503 60.0589Z" fill="#F5F5F5"/>
<path d="M6.92988 43.1119C6.81092 42.9394 6.52539 43.0108 6.17444 43.1952C5.29876 43.7439 4.48678 44.3883 3.75344 45.1165C2.08789 46.7523 1.14804 49.4053 0 53.6405C2.82963 57.0245 6.19801 59.9185 9.96952 62.2062C9.89219 59.3213 9.73158 56.1329 9.56502 54.6161C9.02372 49.7146 8.48836 45.1105 6.92988 43.1119Z" fill="#E2E2E2"/>
<path d="M54.5169 43.1119C54.6358 42.9394 54.9333 43.0108 55.3021 43.2131C55.3054 43.1934 55.3054 43.1733 55.3021 43.1536C53.3331 41.8628 46.0701 39.7035 44.5176 39.1146H44.4581C45.0137 40.1595 45.4145 41.2796 45.6478 42.4398C45.7992 42.902 46.0749 43.3137 46.4449 43.6295C46.6352 43.7722 46.3914 43.909 45.9036 44.034C46.2902 47.2699 45.8619 50.6307 45.5526 53.0458C45.4354 53.8345 45.358 54.6286 45.3206 55.4251C45.3179 55.4765 45.3058 55.5269 45.285 55.5738C45.7034 55.783 46.0327 56.1355 46.213 56.5672C46.3932 56.9988 46.4124 57.4809 46.267 57.9255C46.1216 58.3701 45.8213 58.7477 45.4208 58.9894C45.0203 59.2311 44.5463 59.3209 44.0852 59.2424C43.624 59.1639 43.2064 58.9224 42.9085 58.5618C42.6105 58.2011 42.452 57.7455 42.4619 57.2778C42.4718 56.8101 42.6494 56.3616 42.9623 56.0139C43.2752 55.6662 43.7026 55.4424 44.1667 55.3835C44.1667 54.7887 44.2797 53.9618 44.4105 52.903C44.708 50.595 45.1006 47.3472 44.7199 44.2659C42.7628 44.5574 39.8898 44.7478 39.8898 44.7478L44.5474 48.2633C44.5474 48.2633 39.3306 54.2117 35.8032 56.7992C34.7087 57.5963 33.6321 59.0715 32.7338 60.0768C31.6929 61.2367 31.5442 61.897 30.7292 63.2711C30.6935 64.2882 30.6578 65.8527 30.6162 67.8513H34.5778C40.5646 67.2804 46.3433 65.3562 51.4772 62.2242C51.5546 59.3511 51.7152 56.1865 51.8817 54.6756C52.4171 49.7147 52.9584 45.1106 54.5169 43.1119Z" fill="#EDEDED"/>
<path d="M16.2331 39.5429C15.0434 41.6724 14.978 42.9751 14.1392 43.5997C13.8656 43.8019 14.4664 43.9923 15.3944 44.1529C15.7556 41.7793 16.6572 39.5203 18.0295 37.5502C17.4237 38.0123 16.8939 38.5663 16.4591 39.1919C16.4312 39.2322 16.4054 39.2739 16.3818 39.3168C16.3281 39.3894 16.2785 39.4649 16.2331 39.5429Z" fill="#E0E0E0"/>
<path d="M46.469 43.6175C46.099 43.3017 45.8232 42.8901 45.6719 42.4279C45.7841 42.9526 45.8695 43.4827 45.9277 44.0161C46.4154 43.8971 46.6593 43.7603 46.469 43.6175Z" fill="#E0E0E0"/>
<path d="M40.7348 36.7829C40.8573 37.0593 40.9104 37.3615 40.8894 37.6632C40.8894 37.7643 40.9311 37.9606 40.943 38.2581C40.943 38.9778 40.7942 40.3459 39.1584 42.7312C36.8096 46.2953 34.6782 49.998 32.7758 53.8191C31.5861 56.2698 30.676 58.5778 30.4976 60.0708C30.3191 58.5897 29.3971 56.359 28.1955 53.9678C26.1789 50.0802 23.9262 46.3197 21.4501 42.7075C19.0707 39.3764 19.6655 38.0558 19.7369 37.6394V37.5978C19.8494 37.1782 20.0525 36.7884 20.3318 36.4557C19.1421 37.4729 17.3576 39.8522 16.5367 44.3373C18.4164 44.5753 20.7006 44.724 20.7006 44.724L16.1262 48.18C16.1233 48.2275 16.1233 48.2752 16.1262 48.3227C16.7449 49.0603 21.4917 54.4139 24.7752 56.7933C25.8638 57.5903 26.9404 59.0655 27.8446 60.0708C28.7425 61.1821 29.7038 62.2407 30.7236 63.2413C31.5623 61.8672 31.6873 61.207 32.7282 60.047C33.6264 59.0418 34.7031 57.5666 35.7976 56.7695C39.325 54.1998 44.5417 48.2335 44.5417 48.2335L39.8841 44.718C39.8841 44.718 42.7572 44.5277 44.7142 44.2362C44.4049 41.2798 43.3045 38.4662 40.7348 36.7829Z" fill="#E0E0E0"/>
<path d="M39.17 35.0458C39.3545 35.2949 39.5531 35.5332 39.7648 35.7596C39.86 35.8548 39.9552 35.95 40.0682 36.0749L40.1277 36.1403C40.3393 36.3354 40.538 36.5441 40.7225 36.7649C43.2922 38.4483 44.3689 41.2619 44.7317 44.2302C45.1124 47.3114 44.7317 50.5592 44.4224 52.8672C44.2915 53.926 44.1845 54.7588 44.1785 55.3477C44.2597 55.3419 44.3412 55.3419 44.4224 55.3477C44.7266 55.3502 45.0259 55.4235 45.2968 55.5618C45.3177 55.5149 45.3298 55.4645 45.3325 55.4131C45.3698 54.6166 45.4473 53.8225 45.5645 53.0338C45.8738 50.6187 46.3021 47.2579 45.9154 44.022C45.8573 43.4885 45.7719 42.9584 45.6597 42.4337C45.4263 41.2736 45.0256 40.1535 44.47 39.1086C43.426 37.1859 41.7206 35.7066 39.6696 34.9447C39.5829 34.906 39.4872 34.8916 39.3929 34.9032C39.2986 34.9147 39.2092 34.9517 39.1343 35.0101L39.17 35.0458Z" fill="black"/>
<path d="M44.1908 55.3656C43.7481 55.3972 43.335 55.5993 43.0384 55.9294C42.7418 56.2596 42.5849 56.6919 42.6007 57.1354C42.6165 57.5789 42.8038 57.999 43.1231 58.3071C43.4425 58.6153 43.869 58.7875 44.3127 58.7875C44.7565 58.7875 45.183 58.6153 45.5024 58.3071C45.8217 57.999 46.009 57.5789 46.0248 57.1354C46.0406 56.6919 45.8837 56.2596 45.5871 55.9294C45.2905 55.5993 44.8774 55.3972 44.4347 55.3656C44.3535 55.3597 44.272 55.3597 44.1908 55.3656ZM45.7909 57.2929C45.7898 57.5609 45.7092 57.8225 45.5595 58.0447C45.4097 58.267 45.1975 58.4399 44.9496 58.5416C44.7017 58.6434 44.4292 58.6694 44.1665 58.6164C43.9038 58.5634 43.6627 58.4337 43.4736 58.2438C43.2845 58.0539 43.156 57.8122 43.1041 57.5493C43.0522 57.2864 43.0795 57.014 43.1823 56.7666C43.2851 56.5191 43.4589 56.3076 43.6818 56.1589C43.9047 56.0101 44.1667 55.9307 44.4347 55.9307C44.6133 55.9307 44.7901 55.966 44.9551 56.0345C45.12 56.103 45.2698 56.2035 45.3958 56.33C45.5218 56.4566 45.6216 56.6068 45.6894 56.772C45.7572 56.9373 45.7917 57.1143 45.7909 57.2929Z" fill="#A3A3A3"/>
<path d="M44.4345 55.9307C44.1649 55.9295 43.9009 56.0084 43.6761 56.1573C43.4513 56.3063 43.2758 56.5186 43.1718 56.7674C43.0678 57.0162 43.04 57.2903 43.0919 57.5549C43.1437 57.8196 43.273 58.0628 43.4633 58.2539C43.6535 58.445 43.8962 58.5754 44.1606 58.6284C44.425 58.6815 44.6992 58.6548 44.9485 58.5519C45.1977 58.449 45.4108 58.2744 45.5608 58.0503C45.7107 57.8261 45.7908 57.5625 45.7908 57.2929C45.7908 56.9326 45.6481 56.587 45.3939 56.3317C45.1397 56.0765 44.7948 55.9323 44.4345 55.9307Z" fill="white"/>
<path d="M15.3945 44.1707C15.0106 46.3896 14.8531 48.6417 14.9246 50.8924C14.9218 50.9181 14.9218 50.944 14.9246 50.9697C13.6635 51.2434 12.2299 52.207 11.5399 54.9552C11.213 56.38 11.0888 57.8439 11.1711 59.3034C11.1734 59.3457 11.184 59.387 11.2023 59.4251C11.2206 59.4632 11.2462 59.4973 11.2777 59.5255C11.3092 59.5537 11.3459 59.5754 11.3858 59.5893C11.4257 59.6033 11.468 59.6092 11.5102 59.6068H11.8849H12.0158C12.0989 59.6007 12.1764 59.5626 12.2319 59.5004C12.2874 59.4382 12.3165 59.357 12.3132 59.2737C12.2478 57.8758 12.1943 52.3438 15.567 52.0702C18.9397 51.7966 20.3614 55.9129 20.6469 58.6134C20.6545 58.6929 20.6931 58.7662 20.7543 58.8174C20.8156 58.8687 20.8945 58.8937 20.9741 58.8871H21.0931H21.4738H21.5154C21.5965 58.8795 21.6713 58.8403 21.7236 58.7779C21.7759 58.7156 21.8016 58.6351 21.795 58.554C21.4024 54.7172 19.5048 51.0709 16.0488 50.9697C16.0488 50.0715 16.0488 49.2328 16.0845 48.4298C16.0815 48.3822 16.0815 48.3346 16.0845 48.287C16.1424 46.9978 16.2875 45.714 16.5187 44.4444C17.3575 39.9593 19.1003 37.5799 20.3138 36.5627C20.7702 36.121 21.1974 35.6501 21.5927 35.153C21.5927 35.153 21.6819 35.028 21.6879 35.0161C21.5511 34.9448 21.3072 35.0161 21.1466 35.0875C19.8817 35.6394 18.796 36.5335 18.0118 37.6691C16.66 39.6111 15.7652 41.8338 15.3945 44.1707Z" fill="black"/>
<path d="M11.9084 59.5771H11.5337C11.5337 59.8983 11.6289 61.1177 11.7419 63.2056C11.8668 63.277 12.0036 63.3365 12.1345 63.4079C12.0155 61.1772 11.9441 59.8805 11.9144 59.5474L11.9084 59.5771Z" fill="#E5E5E5"/>
<path d="M22.2768 66.0014V65.7694C21.8128 61.6055 21.563 59.2618 21.5213 58.7979H21.1406C21.1823 59.2678 21.4321 61.6174 21.8961 65.7813V66.0014C21.9376 66.3349 21.9594 66.6706 21.9615 67.0066C22.0924 67.0364 22.2173 67.0721 22.3481 67.0959C22.347 66.7299 22.3231 66.3644 22.2768 66.0014Z" fill="#E5E5E5"/>
<path d="M55.3024 43.2308C54.9336 43.0286 54.6361 42.9572 54.5172 43.1297C52.9587 45.1105 52.4174 49.7146 51.882 54.6339C51.7155 56.1448 51.5549 59.3094 51.4775 62.1824C55.2412 59.8839 58.6013 56.982 61.4233 53.5929C60.2871 49.3993 59.3473 46.7642 57.6936 45.1343C56.966 44.4171 56.1645 43.779 55.3024 43.2308Z" fill="#E2E2E2"/>
</svg>
