<svg width="100" height="100" viewBox="0 0 100 100" fill="none" xmlns="http://www.w3.org/2000/svg">
<path d="M50 100C77.6142 100 100 77.6142 100 50C100 22.3858 77.6142 0 50 0C22.3858 0 0 22.3858 0 50C0 77.6142 22.3858 100 50 100Z" fill="#F2F2F2"/>
<path d="M50.372 68.2612C50.4106 68.2963 50.4411 68.3394 50.4612 68.3876C50.4786 68.338 50.5096 68.2942 50.5505 68.2612C56.4984 63.7032 58.8404 60.6547 59.8813 59.8442C59.2579 58.4912 58.8779 57.0389 58.7586 55.5539L58.3869 55.896C57.6745 56.5257 56.9055 57.0883 56.0895 57.5764C55.3856 57.9909 54.6374 58.3251 53.859 58.5727C52.2741 59.0747 50.5944 59.2019 48.9519 58.9445C48.2089 58.8253 47.481 58.6259 46.781 58.3497C45.9978 58.0385 45.2501 57.6447 44.5505 57.1749C43.7203 56.6131 42.9438 55.9759 42.2308 55.2714C42.131 56.8648 41.7351 58.4256 41.0635 59.8739C42.1341 60.7141 44.4761 63.7627 50.372 68.2612Z" fill="#F7DDCB"/>
<path d="M48.499 76.7361C47.6959 74.9369 46.7962 73.9034 46.6996 72.4164C45.8817 73.3309 45.272 74.29 45.3612 75.1971C45.5991 77.7473 38.1636 69.1748 37.2416 64.8328C37.1449 65.5763 37.078 67.3458 39.4202 70.7807C40.5727 72.4833 43.6436 81.2566 46.6698 90.6989C47.6216 84.3421 48.5361 78.5725 48.8187 77.0335C48.6847 76.9686 48.5734 76.865 48.499 76.7361Z" fill="#9BAEC9"/>
<path d="M52.4237 76.736C52.3517 76.8705 52.2401 76.9795 52.104 77.0483C52.394 78.6245 53.3457 84.6617 54.3347 91.2119C56.8925 82.4387 60.0525 72.8922 61.4727 70.7955C63.7034 67.5018 63.748 65.7621 63.6662 64.9442C62.6401 69.3234 55.331 77.7249 55.5689 75.197C55.6507 74.2899 55.0484 73.3308 54.2305 72.4163C54.1264 73.9033 53.2268 74.9145 52.4237 76.736Z" fill="#9BAEC9"/>
<path d="M62.4092 73.3159L62.4761 73.3605V73.3085L62.4092 73.3159Z" fill="#9BAEC9"/>
<path d="M54.3276 91.2118C53.3461 84.6616 52.3944 78.6245 52.097 77.0483C52.233 76.9794 52.3447 76.8704 52.4167 76.736C53.2197 74.9367 54.1194 73.9033 54.2161 72.4163C52.7736 70.8029 50.6694 69.3382 50.4537 68.5947C50.2381 69.3382 48.1339 70.8252 46.6914 72.4163C46.788 73.9033 47.6877 74.9367 48.4907 76.736C48.5628 76.8704 48.6744 76.9794 48.8105 77.0483C48.5279 78.5873 47.6134 84.3568 46.6616 90.7137C47.6505 93.8066 48.6395 96.9665 49.5466 99.9776H50.134C50.7288 99.9776 51.3162 99.9776 51.9036 99.933C52.5728 97.3828 53.4056 94.3494 54.3276 91.2118Z" fill="#9D2B3B"/>
<path d="M38.0893 62.6394L37.6134 63.1078C37.3536 63.5087 37.2358 63.9852 37.2789 64.461C37.2734 64.5855 37.2609 64.7096 37.2417 64.8328C38.1636 69.1748 45.5986 77.7473 45.3607 75.1971C45.2714 74.29 45.8811 73.3309 46.6989 72.4164C48.1413 70.803 50.2454 69.3383 50.461 68.5948C50.6766 69.3383 52.7807 70.8253 54.2231 72.4164C55.041 73.3309 55.6432 74.29 55.5614 75.1971C55.3235 77.7249 62.632 69.3235 63.6581 64.9443C63.6581 64.7138 63.606 64.5577 63.606 64.461C63.6643 63.9313 63.518 63.3994 63.1971 62.974L62.9146 62.6989C62.8431 62.6416 62.7658 62.5917 62.6841 62.5502H62.7584C61.9093 61.7303 61.1741 60.8001 60.5726 59.7844C60.4239 59.5391 60.2231 59.5614 59.8811 59.829C58.8402 60.6394 56.5057 63.6878 50.5503 68.2454C50.5093 68.2784 50.4784 68.3222 50.461 68.3718C50.4409 68.3236 50.4104 68.2805 50.3718 68.2454C44.4759 63.7398 42.1339 60.6989 41.0707 59.8513C40.7138 59.5688 40.4982 59.5316 40.3272 59.7844C39.7276 60.8034 38.9894 61.7342 38.1339 62.5502H38.1785L38.0893 62.6394Z" fill="#C1D4F2"/>
<path d="M44.5729 57.1747C45.2725 57.6445 46.0202 58.0383 46.8034 58.3494C47.5034 58.6256 48.2313 58.825 48.9744 58.9442C50.6168 59.2016 52.2965 59.0744 53.8814 58.5724C54.6599 58.3248 55.408 57.9906 56.1119 57.5762C56.9279 57.0881 57.697 56.5256 58.4093 55.8959L58.7811 55.5539L59.0785 55.2713C62.1491 52.2973 62.1194 44.8624 62.8629 45.368C64.5506 46.5055 65.6361 43.1375 65.8368 41.1152C66.0227 39.3903 65.3684 38.5353 64.6473 38.8847C64.4982 39.2601 64.239 39.5815 63.9038 39.8067C63.9038 39.8067 62.8406 44.1784 62.4168 44.0446C61.993 43.9108 62.164 39.9628 62.8703 35.3457C63.6138 30.4238 57.5841 32.5724 53.3536 32.4312C49.1231 32.2899 39.3387 31.4721 38.5878 33.7918C37.8368 36.1115 39.3313 43.1301 38.6993 43.4052C38.0673 43.6803 37.3461 40.2156 36.7365 39.5316C36.5933 39.3037 36.4925 39.0518 36.4391 38.7881C35.8294 38.7881 35.3461 39.6059 35.5097 41.1226C35.7179 43.1301 36.8034 46.513 38.4837 45.3754C39.2272 44.8475 39.2272 52.3048 42.2532 55.2713C42.9662 55.9758 43.7428 56.613 44.5729 57.1747Z" fill="#FFE6D4"/>
<path d="M38.6766 43.3754C39.2863 43.1004 37.8067 36.0818 38.5651 33.7621C39.3234 31.4424 49.1004 32.2751 53.3309 32.4015C57.5614 32.5279 63.606 30.394 62.8476 35.316C62.1413 39.9331 61.948 43.8736 62.3941 44.0149C62.8402 44.1561 63.8811 39.7769 63.8811 39.7769C64.2163 39.5517 64.4755 39.2303 64.6246 38.855C65.8142 36.2082 65.264 29.4795 65.264 28.3048C65.264 26.9368 63.145 24.5874 62.2379 24.5874C61.3309 24.5874 62.0892 20.7658 55.8959 19.1227C49.7026 17.4795 44.2602 18.3048 41.2417 19.8067C38.2231 21.3085 35.9554 23.9033 34.5948 24.3123C33.2342 24.7212 35.0483 25.6803 33.9926 26.6394C32.9368 27.5985 34.7361 28.8178 35.0484 30.736C35.3011 32.3346 35.8736 36.9145 36.4089 38.7509C36.4624 39.0147 36.5632 39.2665 36.7063 39.4944C37.3234 40.1859 38.0744 43.6431 38.6766 43.3754Z" fill="#534D46"/>
<path d="M67.9852 66.855C69.4722 69.5092 69.5539 71.1449 70.6023 71.9256C71.6506 72.7063 63.3829 73.249 62.4982 73.3085V73.3605L68.2528 77.71C68.2528 77.71 63.2491 84.5204 60.5651 88.513C59.6283 89.9182 57.264 93.9628 55.948 96.275C55.5762 96.9293 54.8476 98.2973 54.0298 99.8289C61.6424 99.2605 69.021 96.9426 75.5911 93.0557C76.4015 83.2341 78.6915 70.0074 83.1301 70.7509C81.3606 70.0074 76.4387 69.026 73.1153 67.6728C70.2305 66.4981 67.9108 65.0334 66.5205 65.0037C67.1005 65.5422 67.5945 66.1666 67.9852 66.855Z" fill="#191819"/>
<path d="M62.9144 62.7213C63.0194 62.8011 63.1143 62.8934 63.1969 62.9963C63.5178 63.4217 63.6641 63.9537 63.6058 64.4833C63.6058 64.58 63.6058 64.7361 63.6578 64.9666C63.7396 65.7844 63.7025 67.5242 61.4646 70.8179C60.0445 72.9145 56.8846 82.461 54.327 91.2343C53.4051 94.3718 52.5724 97.4053 51.9106 99.9703C52.617 99.9703 53.3159 99.9108 54.0073 99.8514C54.8251 98.3198 55.5538 96.9517 55.9255 96.2975C57.2415 93.9852 59.6058 89.9406 60.5426 88.5354C63.2266 84.5428 68.2304 77.7324 68.2304 77.7324L62.4757 73.383L62.4088 73.3384H62.498C63.3828 73.2789 71.5984 72.6915 70.6021 71.9554C69.6058 71.2194 69.472 69.5391 67.985 66.8848C67.5894 66.187 67.0878 65.5549 66.498 65.0112C65.7545 64.3272 65.011 63.8439 64.6467 63.5242C64.1615 62.9977 63.5003 62.6671 62.788 62.5948H62.7136C62.7842 62.6309 62.8513 62.6732 62.9144 62.7213Z" fill="black"/>
<path d="M26.0668 93.8215C32.3971 97.3026 39.4098 99.3628 46.617 99.8587C45.814 98.052 45.2044 96.6989 44.959 96.2751C43.643 93.9628 41.2861 89.9182 40.3419 88.513C37.6579 84.5204 32.6542 77.71 32.6542 77.71L38.4757 73.316C38.4757 73.316 29.2564 72.684 30.2824 71.9405C31.3085 71.197 31.4125 69.5241 32.8995 66.8699C33.3178 66.1516 33.8473 65.5042 34.4683 64.9517C33.0557 65.368 31.1151 66.5056 28.788 67.4572C25.1151 68.9442 19.5092 69.9926 18.3345 70.7583C22.9887 69.6431 25.3084 83.8364 26.0668 93.8215Z" fill="#222123"/>
<path d="M32.8993 66.8551C31.4123 69.5093 31.3306 71.145 30.2822 71.9257C29.2339 72.7064 38.4607 73.316 38.4607 73.316L32.6391 77.7101C32.6391 77.7101 37.6428 84.5205 40.3269 88.5131C41.2711 89.9183 43.628 93.9629 44.9439 96.2751C45.1893 96.6989 45.7989 98.0521 46.6019 99.8588C47.5759 99.9257 48.5499 99.9703 49.5387 99.9777C48.6317 97.0037 47.6428 93.8067 46.654 90.7138C43.6279 81.2714 40.5573 72.4982 39.4049 70.7956C37.0629 67.3458 37.1298 65.5911 37.2265 64.8476C37.2457 64.7245 37.2581 64.6004 37.2636 64.4759C37.2205 64.0001 37.3384 63.5236 37.5982 63.1227C37.7193 62.9325 37.882 62.7724 38.074 62.6543L38.193 62.5874H38.1781C38.0146 62.5874 37.39 62.5874 36.2897 63.5168C35.9253 63.829 35.219 64.2974 34.4904 64.9591C33.8633 65.5032 33.3263 66.1431 32.8993 66.8551Z" fill="black"/>
<path d="M26.0679 93.8216C25.3244 83.8364 22.9896 69.6431 18.335 70.7732C18.1349 70.8253 17.9406 70.8976 17.755 70.9889C16.6843 71.5167 15.6062 77.0781 14.2529 84.8253C17.7236 88.393 21.7055 91.4249 26.0679 93.8216Z" fill="black"/>
<path d="M75.5391 93.0558C79.8405 90.5206 83.7378 87.3554 87.1013 83.6654C85.8372 76.513 84.8186 71.4647 83.7999 70.9591C83.5636 70.8491 83.3134 70.7716 83.0563 70.7286C78.6397 69.9703 76.3495 83.2342 75.5391 93.0558Z" fill="black"/>
</svg>
